<svg xmlns="http://www.w3.org/2000/svg"
 xmlns:xlink="http://www.w3.org/1999/xlink"
 width="18px" height="18px"  viewBox="0 0 18 18">
<path fill-rule="evenodd"  fill="#fe3e57"
 d="M1.9998779,5.749756 C1.9998779,5.749756 5.749878,5.749756 5.749878,5.749756 C5.749878,5.749756 5.749878,1.9997559 5.749878,1.9997559 C5.749878,1.9997559 1.9998779,1.9997559 1.9998779,1.9997559 C1.9998779,1.9997559 1.9998779,5.749756 1.9998779,5.749756 ZM7.624878,16.999634 C7.624878,16.999634 11.374878,16.999634 11.374878,16.999634 C11.374878,16.999634 11.374878,13.249634 11.374878,13.249634 C11.374878,13.249634 7.624878,13.249634 7.624878,13.249634 C7.624878,13.249634 7.624878,16.999634 7.624878,16.999634 ZM1.9998779,16.999634 C1.9998779,16.999634 5.749878,16.999634 5.749878,16.999634 C5.749878,16.999634 5.749878,13.249634 5.749878,13.249634 C5.749878,13.249634 1.9998779,13.249634 1.9998779,13.249634 C1.9998779,13.249634 1.9998779,16.999634 1.9998779,16.999634 ZM1.9998779,11.374573 C1.9998779,11.374573 5.749878,11.374573 5.749878,11.374573 C5.749878,11.374573 5.749878,7.624756 5.749878,7.624756 C5.749878,7.624756 1.9998779,7.624756 1.9998779,7.624756 C1.9998779,7.624756 1.9998779,11.374573 1.9998779,11.374573 ZM7.624878,11.374573 C7.624878,11.374573 11.374878,11.374573 11.374878,11.374573 C11.374878,11.374573 11.374878,7.624756 11.374878,7.624756 C11.374878,7.624756 7.624878,7.624756 7.624878,7.624756 C7.624878,7.624756 7.624878,11.374573 7.624878,11.374573 ZM13.249878,1.9997559 C13.249878,1.9997559 13.249878,5.749756 13.249878,5.749756 C13.249878,5.749756 16.999878,5.749756 16.999878,5.749756 C16.999878,5.749756 16.999878,1.9997559 16.999878,1.9997559 C16.999878,1.9997559 13.249878,1.9997559 13.249878,1.9997559 ZM7.624878,5.749756 C7.624878,5.749756 11.374878,5.749756 11.374878,5.749756 C11.374878,5.749756 11.374878,1.9997559 11.374878,1.9997559 C11.374878,1.9997559 7.624878,1.9997559 7.624878,1.9997559 C7.624878,1.9997559 7.624878,5.749756 7.624878,5.749756 ZM13.249878,11.374573 C13.249878,11.374573 16.999878,11.374573 16.999878,11.374573 C16.999878,11.374573 16.999878,7.624756 16.999878,7.624756 C16.999878,7.624756 13.249878,7.624756 13.249878,7.624756 C13.249878,7.624756 13.249878,11.374573 13.249878,11.374573 ZM13.249878,16.999634 C13.249878,16.999634 16.999878,16.999634 16.999878,16.999634 C16.999878,16.999634 16.999878,13.249634 16.999878,13.249634 C16.999878,13.249634 13.249878,13.249634 13.249878,13.249634 C13.249878,13.249634 13.249878,16.999634 13.249878,16.999634 Z"/>
</svg>