<svg width="150" height="118" viewBox="0 0 150 118" fill="none" xmlns="http://www.w3.org/2000/svg">
<path d="M60.3291 98.0837H70.0596C73.5028 102.726 79.1914 105.871 85.4788 105.871H98.353H116.766H117.664H125.299C130.09 105.871 133.982 101.977 133.982 97.1853C133.982 92.3934 130.09 88.5 125.299 88.5H132.185C136.976 88.5 140.868 84.6066 140.868 79.8147C140.868 75.0228 136.976 71.1294 132.185 71.1294H134.431C139.221 71.1294 143.114 67.236 143.114 62.4442C143.114 57.6523 139.221 53.7589 134.431 53.7589H139.072C143.862 53.7589 147.754 49.8655 147.754 45.0736C147.754 40.2817 143.862 36.3883 139.072 36.3883H114.67C114.221 36.3883 113.623 36.3883 113.173 36.5381H103.443L106.437 25.7563V13.1777C106.437 7.18781 101.497 2.24619 95.5087 2.24619H91.9159C91.7662 2.24619 91.6165 2.24619 91.4668 2.24619V18.868L87.2752 24.8579L71.5566 42.2284C69.3111 44.6244 67.6644 47.6193 66.7662 50.9137H60.3291" stroke="#3ECA3B" stroke-width="3" stroke-miterlimit="10"/>
<path d="M51.7969 47.3198H60.6292V107.967H51.7969" stroke="#3ECA3B" stroke-width="3" stroke-miterlimit="10"/>
<path d="M0 47.3198H52.2455V115.754H0" stroke="#3ECA3B" stroke-width="3" stroke-miterlimit="10"/>
<path d="M43.8627 100.33C43.8627 103.025 41.6172 105.272 38.9225 105.272C36.2279 105.272 33.9824 103.025 33.9824 100.33C33.9824 97.6345 36.2279 95.3883 38.9225 95.3883C41.6172 95.3883 43.8627 97.6345 43.8627 100.33Z" stroke="#3ECA3B" stroke-width="3" stroke-miterlimit="10"/>
</svg>
