<svg xmlns="http://www.w3.org/2000/svg"
 xmlns:xlink="http://www.w3.org/1999/xlink"
 width="22px" height="17px"  viewBox="0 0 22 17">
<path fill-rule="evenodd"  fill="#8d8d8d"
 d="M1.0068359,1.0001831 C1.0068359,1.0001831 5.4294434,1.0001831 5.4294434,1.0001831 C5.4294434,1.0001831 5.4294434,5.171936 5.4294434,5.171936 C5.4294434,5.171936 1.0068359,5.171936 1.0068359,5.171936 C1.0068359,5.171936 1.0068359,1.0001831 1.0068359,1.0001831 ZM6.835022,1.0001831 C6.835022,1.0001831 20.993835,1.0001831 20.993835,1.0001831 C20.993835,1.0001831 20.993835,5.171936 20.993835,5.171936 C20.993835,5.171936 6.835022,5.171936 6.835022,5.171936 C6.835022,5.171936 6.835022,1.0001831 6.835022,1.0001831 ZM1.0068359,6.413452 C1.0068359,6.413452 5.4294434,6.413452 5.4294434,6.413452 C5.4294434,6.413452 5.4294434,10.585266 5.4294434,10.585266 C5.4294434,10.585266 1.0068359,10.585266 1.0068359,10.585266 C1.0068359,10.585266 1.0068359,6.413452 1.0068359,6.413452 ZM6.835022,6.413452 C6.835022,6.413452 20.993835,6.413452 20.993835,6.413452 C20.993835,6.413452 20.993835,10.585266 20.993835,10.585266 C20.993835,10.585266 6.835022,10.585266 6.835022,10.585266 C6.835022,10.585266 6.835022,6.413452 6.835022,6.413452 ZM1.0068359,11.826599 C1.0068359,11.826599 5.4294434,11.826599 5.4294434,11.826599 C5.4294434,11.826599 5.4294434,15.998352 5.4294434,15.998352 C5.4294434,15.998352 1.0068359,15.998352 1.0068359,15.998352 C1.0068359,15.998352 1.0068359,11.826599 1.0068359,11.826599 ZM6.835022,11.826599 C6.835022,11.826599 20.993835,11.826599 20.993835,11.826599 C20.993835,11.826599 20.993835,15.998352 20.993835,15.998352 C20.993835,15.998352 6.835022,15.998352 6.835022,15.998352 C6.835022,15.998352 6.835022,11.826599 6.835022,11.826599 Z"/>
</svg>