<svg width="83" height="83" viewBox="0 0 83 83" fill="none" xmlns="http://www.w3.org/2000/svg">
<path fill-rule="evenodd" clip-rule="evenodd" d="M21.9999 1.91846H61.9997C73.0596 1.91846 81.9999 10.8582 81.9999 21.9183V61.9184C81.9999 72.9784 73.0596 81.9188 61.9997 81.9188H21.9999C10.9396 81.9188 1.99969 72.9784 1.99969 61.9184V21.9183C1.99969 10.8582 10.9396 1.91846 21.9999 1.91846Z" fill="#A3BBC8"/>
<path fill-rule="evenodd" clip-rule="evenodd" d="M24.9754 58.9178C24.7241 58.9178 24.4838 58.82 24.3058 58.6462C24.1284 58.4716 24.0284 58.2338 24.0277 57.9873L23.9998 37.7857C23.9998 37.7796 24.0005 37.7751 24.0005 37.7686C24.0051 37.4783 24.1473 37.1935 24.4093 37.0154L29.7308 33.3985V29.5609C29.7308 29.0472 30.1547 28.6292 30.6786 28.6292H36.7455L41.9629 25.0835C42.2877 24.8618 42.718 24.8629 43.042 25.0841L48.2269 28.6292H54.32C54.8435 28.6292 55.2673 29.0472 55.2673 29.5609V33.4432L60.5641 37.064C60.7531 37.1935 60.8798 37.3793 60.9365 37.5828C60.9582 37.6293 60.9709 37.7122 60.9709 37.7668L60.9987 57.937C60.9998 58.4504 60.5758 58.8692 60.0527 58.8704L24.9762 58.9178H24.9754ZM27.7481 57.0507L57.226 57.0097L42.5136 45.7859L27.7481 57.0507ZM25.9203 56.0859L37.3629 47.3563L25.8972 39.5627L25.9203 56.0859ZM47.6399 47.3385L59.1015 56.0821L59.0781 39.5173L47.6399 47.3385ZM31.6263 41.1899L38.9343 46.1575L41.9333 43.8696C42.2778 43.6071 42.7487 43.6159 43.0815 43.8619C43.0862 43.8649 43.0896 43.867 43.0942 43.8696L46.0712 46.1416L53.3722 41.1494V30.493H31.6263V41.1899ZM26.6133 37.7823L29.7308 39.9028V35.6625L26.6133 37.7823ZM55.2673 39.8536L58.2952 37.7834L55.2673 35.7135V39.8536ZM40.0791 28.6292H44.9075L42.5002 26.9844L40.0791 28.6292ZM36.0848 40.9316C35.5613 40.9316 35.1373 40.5136 35.1373 39.999C35.1373 39.4852 35.5613 39.0672 36.0848 39.0672H48.9146C49.4373 39.0672 49.8612 39.4852 49.8612 39.999C49.8612 40.5136 49.4373 40.9316 48.9146 40.9316H36.0848ZM36.0848 36.0851C35.5613 36.0851 35.1373 35.6675 35.1373 35.1535C35.1373 34.6386 35.5613 34.2213 36.0848 34.2213H48.9146C49.4373 34.2213 49.8612 34.6386 49.8612 35.1535C49.8612 35.6675 49.4373 36.0851 48.9146 36.0851H36.0848Z" fill="white"/>
</svg>
