<svg width="83" height="83" viewBox="0 0 83 83" fill="none" xmlns="http://www.w3.org/2000/svg">
<g clip-path="url(#clip0_22_13)">
<path fill-rule="evenodd" clip-rule="evenodd" d="M21.9998 1.99982H61.9998C73.0595 1.99982 81.9998 10.9394 81.9998 21.9994V61.9996C81.9998 73.0596 73.0595 81.9994 61.9998 81.9994H21.9998C10.9395 81.9994 1.99976 73.0596 1.99976 61.9996V21.9994C1.99976 10.9394 10.9395 1.99982 21.9998 1.99982Z" fill="white"/>
<path fill-rule="evenodd" clip-rule="evenodd" d="M40.5969 63.8099L34.0134 60.8928L28.3397 63.4029C27.6972 63.6876 26.9655 63.5477 26.4749 63.0474C25.9852 62.548 25.862 61.8172 26.1624 61.1852L31.1567 50.6697C31.2619 50.4464 31.4394 50.2667 31.6608 50.1566C32.2051 49.8857 32.8693 50.1047 33.1423 50.6472C33.3077 50.9782 33.2905 51.3532 33.1285 51.6561L28.785 60.801L33.1052 58.887C33.6794 58.6319 34.3382 58.633 34.9113 58.888L41.4941 61.804C41.4941 61.804 41.501 61.804 41.5039 61.804C41.5051 61.804 41.5057 61.804 41.5057 61.804L48.0902 58.887C48.6616 58.6319 49.3195 58.6319 49.8946 58.887L54.2147 60.801L49.8724 51.6556C49.6536 51.2487 49.7093 50.7313 50.0467 50.3803C50.4311 49.9787 51.0475 49.9311 51.4876 50.2451C51.638 50.3524 51.7622 50.4972 51.8441 50.6687L56.8381 61.1864C57.1377 61.8172 57.0156 62.5471 56.525 63.0474C56.0354 63.5477 55.3037 63.6876 54.662 63.4029L48.9973 60.8928L42.4031 63.8099C42.116 63.9376 41.8082 64.0007 41.5004 64.0007C41.1915 64.0007 40.8837 63.9376 40.5969 63.8099ZM38.6501 56.2103L29.1027 40.2837C29.0911 40.2632 29.0795 40.2422 29.0689 40.2217C28.0562 38.2535 27.5277 36.0375 27.5404 33.811C27.5631 30.1685 29.0046 26.7272 31.6011 24.1216C34.1976 21.5153 37.6431 20.053 41.3024 20.0013C45.069 19.95 48.6211 21.3702 51.3012 24.0022C53.9824 26.6333 55.4593 30.1469 55.4593 33.8951C55.4593 36.1232 54.9453 38.2519 53.9313 40.2217C53.9203 40.2422 53.9086 40.2632 53.8969 40.2837L44.3497 56.2103C43.745 57.2193 42.6805 57.8214 41.5004 57.8214C40.3204 57.8214 39.2548 57.2193 38.6501 56.2103ZM41.3331 22.1985C34.9827 22.2854 29.785 27.5014 29.7473 33.8239C29.7356 35.7147 30.1632 37.5192 31.0162 39.1896L40.5456 55.0851C40.8372 55.5723 41.3105 55.6254 41.5004 55.6254C41.6903 55.6254 42.163 55.5723 42.4553 55.0851L51.9835 39.1896C52.8261 37.5407 53.2535 35.7593 53.2535 33.8951C53.2535 30.7393 52.0096 27.7816 49.7523 25.5651C47.5371 23.3907 44.6137 22.1971 41.5054 22.1971C41.4482 22.1971 41.3906 22.1976 41.3331 22.1985ZM36.4497 33.8951C36.4497 31.1228 38.7151 28.8682 41.5004 28.8682C44.285 28.8682 46.5512 31.1228 46.5512 33.8951C46.5512 36.6677 44.285 38.9219 41.5004 38.9219C38.7151 38.9219 36.4497 36.6677 36.4497 33.8951ZM38.6553 33.8951C38.6553 35.4564 39.9318 36.7265 41.5004 36.7265C43.0691 36.7265 44.3443 35.4564 44.3443 33.8951C44.3443 32.3343 43.0691 31.0642 41.5004 31.0642C39.9318 31.0642 38.6553 32.3343 38.6553 33.8951Z" fill="#A3BBC8"/>
</g>
<defs>
<clipPath id="clip0_22_13">
<rect width="83" height="83" fill="white"/>
</clipPath>
</defs>
</svg>
