<svg width="83" height="83" viewBox="0 0 83 83" fill="none" xmlns="http://www.w3.org/2000/svg">
<path fill-rule="evenodd" clip-rule="evenodd" d="M21.9996 1.91846H61.9998C73.0597 1.91846 81.9996 10.8582 81.9996 21.9183V61.9184C81.9996 72.9784 73.0597 81.9188 61.9998 81.9188H21.9996C10.9397 81.9188 1.99976 72.9784 1.99976 61.9184V21.9183C1.99976 10.8582 10.9397 1.91846 21.9996 1.91846Z" fill="white"/>
<path fill-rule="evenodd" clip-rule="evenodd" d="M37.4403 58.9221C37.4403 56.1683 39.7102 53.9274 42.4991 53.9274C45.2894 53.9274 47.5592 56.1683 47.5592 58.9221C47.5592 61.6772 45.2894 63.9169 42.4991 63.9169C39.7102 63.9169 37.4403 61.6763 37.4403 58.9221ZM39.4148 58.9221C39.4148 60.6013 40.7991 61.9675 42.4991 61.9675C44.2001 61.9675 45.5846 60.6013 45.5846 58.9221C45.5846 57.2431 44.2001 55.8768 42.4991 55.8768C40.7991 55.8768 39.4148 57.2431 39.4148 58.9221ZM50.881 47.5858C50.881 44.8311 53.1506 42.5909 55.9409 42.5909C58.7297 42.5909 60.9998 44.8311 60.9998 47.5858C60.9998 50.3397 58.7297 52.5812 55.9409 52.5812C53.1506 52.5812 50.881 50.3397 50.881 47.5858ZM52.8567 47.5858C52.8567 49.2654 54.24 50.6317 55.9409 50.6317C57.641 50.6317 59.0253 49.2654 59.0253 47.5858C59.0253 45.9067 57.641 44.5403 55.9409 44.5403C54.24 44.5403 52.8567 45.9067 52.8567 47.5858ZM37.4403 47.5858C37.4403 44.8311 39.7102 42.5909 42.4991 42.5909C45.2894 42.5909 47.5592 44.8311 47.5592 47.5858C47.5592 50.3397 45.2894 52.5812 42.4991 52.5812C39.7102 52.5812 37.4403 50.3397 37.4403 47.5858ZM39.4148 47.5858C39.4148 49.2654 40.7991 50.6317 42.4991 50.6317C44.2001 50.6317 45.5846 49.2654 45.5846 47.5858C45.5846 45.9067 44.2001 44.5403 42.4991 44.5403C40.7991 44.5403 39.4148 45.9067 39.4148 47.5858ZM23.9999 47.5858C23.9999 44.8311 26.2695 42.5909 29.0588 42.5909C31.8488 42.5909 34.1184 44.8311 34.1184 47.5858C34.1184 50.3397 31.8488 52.5812 29.0588 52.5812C26.2688 52.5812 23.9999 50.3397 23.9999 47.5858ZM25.9745 47.5858C25.9745 49.2654 27.3578 50.6317 29.0588 50.6317C30.7598 50.6317 32.1431 49.2654 32.1431 47.5858C32.1431 45.9067 30.7598 44.5403 29.0588 44.5403C27.3578 44.5403 25.9745 45.9067 25.9745 47.5858ZM50.881 36.249C50.881 33.4952 53.1506 31.2543 55.9409 31.2543C58.7297 31.2543 60.9998 33.4952 60.9998 36.249C60.9998 39.0037 58.7297 41.2444 55.9409 41.2444C53.1506 41.2444 50.881 39.0037 50.881 36.249ZM52.8567 36.249C52.8567 37.9289 54.24 39.2941 55.9409 39.2941C57.641 39.2941 59.0253 37.9289 59.0253 36.249C59.0253 34.57 57.641 33.204 55.9409 33.204C54.24 33.204 52.8567 34.57 52.8567 36.249ZM37.4403 36.249C37.4403 33.4952 39.7102 31.2543 42.4991 31.2543C45.2894 31.2543 47.5592 33.4952 47.5592 36.249C47.5592 39.0037 45.2894 41.2444 42.4991 41.2444C39.7102 41.2444 37.4403 39.0037 37.4403 36.249ZM39.4148 36.249C39.4148 37.9289 40.7991 39.2941 42.4991 39.2941C44.2001 39.2941 45.5846 37.9289 45.5846 36.249C45.5846 34.57 44.2001 33.204 42.4991 33.204C40.7991 33.204 39.4148 34.57 39.4148 36.249ZM23.9999 36.249C23.9999 33.4952 26.2695 31.2543 29.0588 31.2543C31.8488 31.2543 34.1184 33.4952 34.1184 36.249C34.1184 39.0037 31.8488 41.2444 29.0588 41.2444C26.2688 41.2444 23.9999 39.0037 23.9999 36.249ZM25.9745 36.249C25.9745 37.9289 27.3578 39.2941 29.0588 39.2941C30.7598 39.2941 32.1431 37.9289 32.1431 36.249C32.1431 34.57 30.7598 33.204 29.0588 33.204C27.3578 33.204 25.9745 34.57 25.9745 36.249ZM50.881 24.9133C50.881 22.1583 53.1506 19.9178 55.9409 19.9178C58.7297 19.9178 60.9998 22.1583 60.9998 24.9133C60.9998 27.6671 58.7297 29.9081 55.9409 29.9081C53.1506 29.9081 50.881 27.6671 50.881 24.9133ZM52.8567 24.9133C52.8567 26.5923 54.24 27.9586 55.9409 27.9586C57.641 27.9586 59.0253 26.5923 59.0253 24.9133C59.0253 23.2336 57.641 21.8675 55.9409 21.8675C54.24 21.8675 52.8567 23.2336 52.8567 24.9133ZM37.4403 24.9133C37.4403 22.1583 39.7102 19.9178 42.4991 19.9178C45.2894 19.9178 47.5592 22.1583 47.5592 24.9133C47.5592 27.6671 45.2894 29.9081 42.4991 29.9081C39.7102 29.9081 37.4403 27.6671 37.4403 24.9133ZM39.4148 24.9133C39.4148 26.5923 40.7991 27.9586 42.4991 27.9586C44.2001 27.9586 45.5846 26.5923 45.5846 24.9133C45.5846 23.2336 44.2001 21.8675 42.4991 21.8675C40.7991 21.8675 39.4148 23.2336 39.4148 24.9133ZM23.9999 24.9133C23.9999 22.1583 26.2695 19.9178 29.0588 19.9178C31.8488 19.9178 34.1184 22.1583 34.1184 24.9133C34.1184 27.6671 31.8488 29.9081 29.0588 29.9081C26.2688 29.9081 23.9999 27.6671 23.9999 24.9133ZM25.9745 24.9133C25.9745 26.5923 27.3578 27.9586 29.0588 27.9586C30.7598 27.9586 32.1431 26.5923 32.1431 24.9133C32.1431 23.2336 30.7598 21.8675 29.0588 21.8675C27.3578 21.8675 25.9745 23.2336 25.9745 24.9133Z" fill="#A3BBC8"/>
</svg>
