<svg xmlns="http://www.w3.org/2000/svg"
 xmlns:xlink="http://www.w3.org/1999/xlink"
 width="9px" height="13px"  viewBox="0 0 9 13">
<path fill-rule="evenodd"  fill="#243f4d"
 d="M2.472046,11.5383 C2.5906982,11.5383 2.7094727,11.49231 2.8026733,11.398193 C2.8026733,11.398193 7.024292,7.133423 7.024292,7.133423 C7.028137,7.1282654 7.0324097,7.1243286 7.036621,7.120056 C7.0769043,7.0767517 7.1086426,7.028412 7.131714,6.97583 C7.131714,6.97583 7.131958,6.9774475 7.131958,6.974762 C7.1620483,6.9066467 7.177063,6.832306 7.177063,6.758148 C7.177063,6.757263 7.177063,6.756714 7.177063,6.7556458 C7.176697,6.6841736 7.1620483,6.6114197 7.1332397,6.5447693 C7.1332397,6.544037 7.1332397,6.544037 7.1328735,6.544037 C7.1328735,6.544037 7.1328735,6.544037 7.1328735,6.543152 C7.109436,6.4898376 7.0769043,6.4397583 7.0354614,6.3955383 C7.0320435,6.391266 7.028137,6.387146 7.024292,6.3839417 C7.024292,6.3839417 2.8026733,2.1186523 2.8026733,2.1186523 C2.6087646,1.9243469 2.3062134,1.9327087 2.123352,2.1382751 C2.0349731,2.2373962 1.9920654,2.3639832 1.9920654,2.4903564 C1.9920654,2.6264038 2.0421143,2.7619019 2.1412964,2.862091 C2.1412964,2.862091 5.998169,6.758148 5.998169,6.758148 C5.998169,6.758148 2.1412964,10.654755 2.1412964,10.654755 C2.0421143,10.755493 1.9920654,10.890625 1.9920654,11.026489 C1.9920654,11.153229 2.0349731,11.279816 2.123352,11.37912 C2.2179565,11.485016 2.3445435,11.5383 2.472046,11.5383 Z"/>
</svg>