<svg width="127" height="127" viewBox="0 0 127 127" fill="none" xmlns="http://www.w3.org/2000/svg">
<path fill-rule="evenodd" clip-rule="evenodd" d="M63.5001 0C98.5701 0 127 28.4302 127 63.5C127 98.5703 98.5701 127 63.5001 127C28.43 127 0 98.5703 0 63.5C0 28.4302 28.43 0 63.5001 0Z" fill="#A3BBC8" fill-opacity="0.4"/>
<path fill-rule="evenodd" clip-rule="evenodd" d="M63.0001 15C90.0619 15 112 36.938 112 64C112 91.062 90.0619 113 63.0001 113C35.9381 113 14 91.062 14 64C14 36.938 35.9381 15 63.0001 15Z" fill="#A3BBC8"/>
<path fill-rule="evenodd" clip-rule="evenodd" d="M75.6845 66.7426L59.6405 76.539C59.1399 76.8454 58.5598 76.9997 57.9778 76.9997C57.4982 76.9997 57.0174 76.8945 56.5786 76.6833C55.607 76.2128 55 75.2958 55 74.2978V54.7028C55 53.704 55.607 52.7858 56.5786 52.3163C57.5499 51.8481 58.7274 51.9028 59.6405 52.4599L75.6845 62.2577C76.5069 62.7599 77 63.6005 77 64.4994C77 65.3986 76.5069 66.2399 75.6845 66.7426Z" fill="white"/>
</svg>
